<?xml version="1.0" encoding="UTF-8" standalone="no"?>
<!DOCTYPE svg PUBLIC "-//W3C//DTD SVG 1.1//EN" "http://www.w3.org/Graphics/SVG/1.1/DTD/svg11.dtd">
<svg width="100%" height="100%" viewBox="0 0 80 80" version="1.1" xmlns="http://www.w3.org/2000/svg" xmlns:xlink="http://www.w3.org/1999/xlink" xml:space="preserve" xmlns:serif="http://www.serif.com/" style="fill-rule:evenodd;clip-rule:evenodd;stroke-linejoin:round;stroke-miterlimit:2;">
    <g transform="matrix(0.0377953,0,0,0.0377953,-1.43622,-1.43622)">
        <path d="M38,1088.03C38,1366.5 148.622,1633.56 345.53,1830.47C542.438,2027.38 809.503,2138 1087.97,2138C1087.99,2138 1088.01,2138 1088.03,2138C1366.5,2138 1633.56,2027.38 1830.47,1830.47C2027.38,1633.56 2138,1366.5 2138,1088.03C2138,1088.01 2138,1087.99 2138,1087.97C2138,809.503 2027.38,542.438 1830.47,345.53C1633.56,148.622 1366.5,38 1088.03,38C1088.01,38 1087.99,38 1087.97,38C809.503,38 542.438,148.622 345.53,345.53C148.622,542.438 38,809.503 38,1087.97L38,1088.03Z"/>
    </g>
    <g transform="matrix(0.0377953,0,0,0.0377953,-1.43622,-1.43622)">
        <path d="M747,1860C726,1747 721,1608 762,1455C800,1312 830,1168 864,1025C789,845 877,646 1013,657C1108,664 1154,732 1108,905C1090,964 1072,1022 1055,1081C1032,1165 1052,1258 1165,1278C1326,1305 1473,1096 1472,815C1472,568 1287,454 1095,462C838,473 663,653 663,880C663,946 687,1034 729,1072C737,1080 741,1091 738,1102L713,1192C711,1200 706,1206 698,1210C690,1214 682,1215 674,1211C606,1184 491,1110 486,862C482,688 586,518 751,413C989,262 1342,268 1545,476C1735,672 1729,1007 1582,1224C1479,1374 1324,1434 1213,1432C1138,1431 1052,1407 990,1324C976,1383 962,1441 947,1499C901,1673 859,1736 764,1864C762,1867 758,1868 754,1867C750,1866 747,1863 747,1860Z" style="fill:white;"/>
    </g>
</svg>
